<svg width="184" height="212" viewBox="0 0 184 212" fill="none" xmlns="http://www.w3.org/2000/svg">
<path d="M103.142 167.026C99.6518 163.543 95.0775 161.801 90.5085 161.801C85.9394 161.801 81.3652 163.543 77.8751 167.026C70.9002 173.988 69.9812 183.825 76.7445 193.806C80.1777 198.871 90.5085 211.542 90.5085 211.542C90.5085 211.542 100.839 198.871 104.272 193.806C111.036 183.825 110.122 173.993 103.142 167.026ZM90.5033 187.72C86.3163 187.72 82.9192 184.33 82.9192 180.146C82.9192 175.961 86.3163 172.576 90.5033 172.576C94.6903 172.576 98.0926 175.967 98.0926 180.146C98.0926 184.325 94.6955 187.72 90.5033 187.72Z" fill="#5E63AA"/>
<path d="M164.063 116.012C160.573 112.529 155.998 110.787 151.429 110.787C146.86 110.787 142.286 112.529 138.796 116.012C131.821 122.974 130.902 132.811 137.665 142.792C141.099 147.857 151.429 160.528 151.429 160.528C151.429 160.528 161.76 147.857 165.193 142.792C171.957 132.811 171.043 122.979 164.063 116.012ZM151.424 136.706C147.237 136.706 143.84 133.316 143.84 129.132C143.84 124.948 147.237 121.562 151.424 121.562C155.611 121.562 159.014 124.953 159.014 129.132C159.014 133.311 155.616 136.706 151.424 136.706Z" fill="#5E63AA"/>
<path d="M31.8952 113.951C28.4052 110.468 23.831 108.726 19.2619 108.726C14.6928 108.726 10.1186 110.468 6.62854 113.951C-0.346388 120.913 -1.26537 130.75 5.49789 140.731C8.93115 145.796 19.2619 158.467 19.2619 158.467C19.2619 158.467 29.5926 145.796 33.0259 140.731C39.7891 130.75 38.8753 120.918 31.8952 113.951ZM19.2567 134.645C15.0697 134.645 11.6726 131.255 11.6726 127.071C11.6726 122.887 15.0697 119.501 19.2567 119.501C23.4438 119.501 26.846 122.892 26.846 127.071C26.846 131.25 23.4489 134.645 19.2567 134.645Z" fill="#5E63AA"/>
<path d="M107.272 50.5705C103.782 47.0871 99.2079 45.3455 94.6388 45.3455C90.0698 45.3455 85.4955 47.0871 82.0055 50.5705C75.0306 57.5321 74.1116 67.369 80.8748 77.3502C84.3081 82.4155 94.6388 95.0864 94.6388 95.0864C94.6388 95.0864 104.97 82.4155 108.403 77.3502C115.166 67.369 114.252 57.5372 107.272 50.5705ZM94.6337 71.2646C90.4467 71.2646 87.0495 67.874 87.0495 63.6898C87.0495 59.5056 90.4467 56.1202 94.6337 56.1202C98.8207 56.1202 102.223 59.5108 102.223 63.6898C102.223 67.8688 98.8259 71.2646 94.6337 71.2646Z" fill="#5E63AA"/>
<path d="M177.486 5.22505C173.996 1.74168 169.422 0 164.853 0C160.284 0 155.709 1.74168 152.219 5.22505C145.244 12.1866 144.325 22.0235 151.089 32.0047C154.522 37.07 164.853 49.741 164.853 49.741C164.853 49.741 175.183 37.07 178.617 32.0047C185.38 22.0235 184.466 12.1918 177.486 5.22505ZM164.848 25.9191C160.661 25.9191 157.263 22.5285 157.263 18.3443C157.263 14.1602 160.661 10.7747 164.848 10.7747C169.035 10.7747 172.437 14.1653 172.437 18.3443C172.437 22.5233 169.04 25.9191 164.848 25.9191Z" fill="#5E63AA"/>
<path d="M53.5788 19.1379C50.0888 15.6545 45.5146 13.9128 40.9455 13.9128C36.3764 13.9128 31.8022 15.6545 28.3121 19.1379C21.3372 26.0995 20.4182 35.9364 27.1815 45.9175C30.6147 50.9828 40.9455 63.6538 40.9455 63.6538C40.9455 63.6538 51.2762 50.9828 54.7095 45.9175C61.4727 35.9364 60.5589 26.1046 53.5788 19.1379ZM40.9403 39.832C36.7533 39.832 33.3562 36.4413 33.3562 32.2572C33.3562 28.073 36.7533 24.6876 40.9403 24.6876C45.1273 24.6876 48.5296 28.0782 48.5296 32.2572C48.5296 36.4362 45.1325 39.832 40.9403 39.832Z" fill="#5E63AA"/>
</svg>
