<svg width="98" height="28" viewBox="0 0 98 28" fill="none" xmlns="http://www.w3.org/2000/svg">
<path d="M22.3512 11.7474L19.8945 15.7248L22.3543 14.7831H22.3717L24.8284 15.7248L22.3748 11.7474" fill="#D7DBFF"/>
<path d="M27.0853 14C27.0853 14.5835 27.0502 15.1732 26.9769 15.7541C26.1414 22.4503 20.6447 27.5925 13.9049 27.9765C13.6411 27.9911 13.3683 28 13.0929 28C10.3168 28 7.63409 27.1876 5.33591 25.6535C4.00206 24.7647 2.84101 23.6621 1.88248 22.3774C1.82963 22.3071 1.85007 22.2423 1.86782 22.2103C1.88556 22.1779 1.92336 22.1223 2.00861 22.1223H11.8412C12.0202 22.1223 12.1961 22.0725 12.3427 21.9787L20.2054 17.1156C20.2054 17.1156 20.2143 17.1214 20.217 17.1245C20.2405 17.1392 20.2667 17.1569 20.2903 17.1716C20.3049 17.1835 20.3196 17.192 20.3342 17.2009C20.3578 17.2156 20.3813 17.2302 20.4044 17.2449C20.4307 17.2596 20.4573 17.2773 20.4835 17.292C20.4951 17.2982 20.5097 17.3066 20.5244 17.3155C20.5595 17.336 20.5977 17.3564 20.6359 17.3742C20.6447 17.3804 20.6505 17.3831 20.6594 17.3862C20.7034 17.4097 20.7473 17.4301 20.7944 17.4506C20.8353 17.4711 20.8793 17.4888 20.9205 17.5066C20.9823 17.5301 21.0436 17.5563 21.1053 17.5768C21.1462 17.5915 21.1844 17.603 21.2257 17.6177C21.2314 17.6177 21.2372 17.6208 21.243 17.6235C21.2839 17.6351 21.3221 17.647 21.3634 17.6586C21.4104 17.6702 21.4544 17.6822 21.5011 17.6937C21.5304 17.6995 21.5597 17.7084 21.589 17.7142C21.6183 17.72 21.6476 17.7262 21.6797 17.7319C21.7148 17.7377 21.7472 17.7435 21.7823 17.7493H21.7911C21.8351 17.7551 21.8791 17.7609 21.9231 17.7671C21.9701 17.7729 22.0168 17.7786 22.0665 17.7817C22.1074 17.7848 22.1518 17.7875 22.1927 17.7906H22.3539C24.1098 17.7906 25.6639 16.5471 26.0477 14.8371C26.109 14.5642 26.1383 14.2856 26.1383 14.0042C26.1383 13.7229 26.109 13.4558 26.0504 13.1888C25.672 11.4671 24.1182 10.2175 22.3535 10.2175C22.2625 10.2175 22.1688 10.2206 22.0781 10.2291C22.0341 10.2322 21.9902 10.2349 21.9462 10.2407C21.9227 10.2407 21.8991 10.2464 21.8791 10.2495C21.844 10.2526 21.8116 10.2584 21.7765 10.2642C21.7294 10.27 21.6827 10.2789 21.6357 10.2877H21.6268C21.5859 10.2966 21.5477 10.3024 21.5065 10.314C21.4949 10.314 21.4799 10.3198 21.4683 10.3229C21.4301 10.3317 21.3919 10.3433 21.3541 10.3522C21.1311 10.4139 20.9144 10.4931 20.7092 10.5926C20.659 10.6162 20.6123 10.6397 20.5653 10.6659C20.5537 10.6717 20.5418 10.6775 20.5302 10.6864C20.4978 10.7042 20.4658 10.7215 20.4334 10.742C20.4014 10.7597 20.3689 10.7802 20.3365 10.8006C20.3219 10.8095 20.3072 10.8211 20.2926 10.83C20.2575 10.8535 20.2251 10.874 20.19 10.8975L6.18297 2.22604L6.07458 2.15851C6.00708 2.1176 5.99821 2.05276 5.99821 2.02073C5.99821 1.9887 6.00978 1.92386 6.07728 1.88565C8.19687 0.651064 10.6243 0 13.0929 0C13.3683 0 13.6411 0.00887639 13.908 0.0235417C20.6536 0.41063 26.1503 5.55546 26.98 12.2606C27.0502 12.8356 27.0853 13.4192 27.0853 14Z" fill="#D7DBFF"/>
<path d="M7.6695 21.327H6.86024L5.86352 16.103L5.70228 15.264L3.79948 5.29117C4.01047 5.02719 4.23034 4.769 4.46216 4.51969L6.4263 14.8179L6.58753 15.6569L7.6695 21.327Z" fill="#D7DBFF"/>
<path d="M11.4866 21.327H10.6746L10.0941 18.2824L10.0355 17.9744L9.27636 13.9939L9.11821 13.1549L7.34733 3.8833L8.26768 4.45216L9.84184 12.706L9.99999 13.5451L10.7738 17.6016L10.935 18.4433L11.4866 21.327Z" fill="#D7DBFF"/>
<path d="M18.7455 12.8677C18.7366 12.8971 18.7281 12.9264 18.7188 12.9557C18.71 12.985 18.7042 13.0113 18.6953 13.0406C18.6922 13.0553 18.6864 13.073 18.6837 13.0904C18.6776 13.1139 18.6718 13.1402 18.666 13.1668C18.6602 13.1961 18.6513 13.2286 18.6456 13.2606C18.6189 13.3895 18.6016 13.5215 18.5869 13.6535L11.891 12.3803L11.3545 12.2776L11.4629 11.7088L11.7356 11.5417L18.742 12.8731L18.7455 12.8677Z" fill="#D7DBFF"/>
<path d="M16.189 18.6342L16.1832 18.6666L15.2246 19.2621L10.935 18.4433L10.0941 18.2824L10.0355 17.9744L10.1295 17.4787L10.7738 17.6016L16.189 18.6342Z" fill="#D7DBFF"/>
<path d="M16.4852 9.5356L5.8672 16.1057L1.59872 18.7454C1.50769 18.4872 1.41974 18.2291 1.34375 17.9651L9.11821 13.1549L9.84184 12.706L11.4665 11.703L11.7392 11.5359L15.7291 9.06901L16.4883 9.5383L16.4852 9.5356Z" fill="#D7DBFF"/>
<path d="M6.08375 3.90986L6.98674 4.46714L7.9044 5.036L15.3656 9.6498L18.5609 11.6296C18.5405 11.6589 18.5228 11.6914 18.5054 11.7207C18.4907 11.7469 18.4761 11.7736 18.4614 11.7998C18.4556 11.8087 18.4526 11.8176 18.4468 11.8261V11.8291C18.4352 11.8527 18.4205 11.8762 18.4086 11.8994C18.3179 12.0665 18.2385 12.2483 18.1652 12.4389C18.1536 12.4682 18.1417 12.4976 18.1328 12.53C18.1181 12.5709 18.1035 12.6149 18.0919 12.6562V12.6651C18.0861 12.6828 18.0803 12.7002 18.0772 12.7179C18.0742 12.7295 18.0715 12.7384 18.0684 12.7504C18.0684 12.7534 18.0684 12.7592 18.0653 12.7619V12.7677C18.0533 12.8001 18.0448 12.8353 18.036 12.8704V12.882C18.036 12.882 18.0271 12.9082 18.0244 12.9202C18.0182 12.9464 18.0124 12.97 18.0067 12.9966V13.0055C17.9951 13.0437 17.9862 13.0819 17.9804 13.1228C17.9511 13.2725 17.9276 13.4277 17.9129 13.5832C17.9098 13.6156 17.9071 13.6507 17.904 13.6828V13.6943C17.904 13.7206 17.8983 13.7472 17.8983 13.7735C17.8983 13.8059 17.8983 13.841 17.8952 13.8761V14.1223C17.8952 14.1663 17.8952 14.2072 17.901 14.2543C17.901 14.2867 17.904 14.3188 17.9067 14.3512C17.9067 14.3689 17.9067 14.3863 17.9125 14.401C17.9125 14.4303 17.9183 14.4566 17.9214 14.4859C17.9303 14.5739 17.9418 14.6588 17.9565 14.7468C17.9623 14.7877 17.9712 14.8317 17.98 14.8757C17.9858 14.9108 17.9947 14.9432 18.0005 14.9783V14.9841C18.0005 14.9841 18.0063 15.0019 18.0063 15.0104L18.0178 15.0602L18.0298 15.1072C18.0298 15.1072 18.0298 15.1161 18.0329 15.1219L18.0387 15.1454L18.0475 15.1806C18.0533 15.2041 18.0595 15.2246 18.0653 15.2481C18.0826 15.3125 18.1035 15.3743 18.1239 15.4357C18.1297 15.4561 18.1386 15.4766 18.1444 15.5001L18.1501 15.5206C18.1501 15.5206 18.1501 15.5294 18.1532 15.5321C18.1798 15.6024 18.2061 15.673 18.2381 15.7463V15.7494L18.2439 15.761C18.2527 15.7845 18.2643 15.8081 18.2732 15.8312C18.3172 15.9308 18.3611 16.0188 18.4078 16.1041C18.4225 16.1334 18.4402 16.1658 18.458 16.1952C18.4726 16.2214 18.4873 16.245 18.5019 16.2716V16.2774C18.5019 16.2774 18.5077 16.2832 18.5108 16.2862C18.5285 16.3187 18.549 16.3507 18.5694 16.38L11.6861 20.6388H3.2282C2.83822 19.9615 2.50688 19.2486 2.24304 18.5123C2.15201 18.2599 2.07294 18.0106 2.00273 17.7702C1.64208 16.5498 1.4604 15.2828 1.4604 14.0012C1.4604 12.4818 1.70958 10.9975 2.20486 9.5838C2.69435 8.18481 3.41257 6.88538 4.3391 5.72103C4.54431 5.46593 4.7553 5.21932 4.96938 4.98776C5.31538 4.61225 5.69069 4.25141 6.08337 3.9114M6.02512 3.06506C5.46234 3.51389 4.94008 4.00023 4.46216 4.51969C4.23034 4.769 4.01047 5.02719 3.79948 5.29117C1.84692 7.73719 0.771484 10.7794 0.771484 14C0.771484 15.3523 0.965121 16.6868 1.34005 17.9627C1.41642 18.2267 1.50128 18.4849 1.59502 18.7431C1.91749 19.6408 2.33369 20.506 2.83784 21.3273H11.8408C11.8701 21.3273 11.8994 21.3184 11.9229 21.3037L15.2246 19.2621L16.1856 18.6667L19.5804 16.5695C19.56 16.5491 19.5422 16.5286 19.5245 16.5078C19.4952 16.4727 19.4632 16.4375 19.4339 16.402C19.4161 16.3816 19.4015 16.3611 19.3841 16.3403C19.3663 16.3167 19.349 16.2932 19.3312 16.27C19.2491 16.1616 19.1758 16.0501 19.1056 15.9327C19.0909 15.9092 19.0763 15.883 19.0616 15.8563C19.047 15.8301 19.0323 15.8065 19.0207 15.7799C18.9798 15.7035 18.9417 15.6244 18.9066 15.5453C18.895 15.5217 18.8861 15.5013 18.8772 15.4777C18.8506 15.416 18.8271 15.3573 18.807 15.296C18.7982 15.2697 18.7893 15.2462 18.7804 15.2195C18.76 15.164 18.7453 15.108 18.7276 15.0524C18.7218 15.0378 18.7187 15.0231 18.7156 15.0084C18.7098 14.988 18.7041 14.9675 18.6983 14.9467C18.6894 14.9143 18.6836 14.8822 18.6747 14.8498V14.8382C18.6689 14.8058 18.6601 14.7738 18.6543 14.7414C18.6485 14.7063 18.6396 14.6711 18.6338 14.6356C18.6223 14.5623 18.6103 14.4859 18.6014 14.4126C18.5984 14.3832 18.5957 14.357 18.5926 14.3277V14.313C18.5926 14.2806 18.5868 14.2485 18.5868 14.2161C18.5868 14.181 18.5837 14.1459 18.581 14.1104V13.8962C18.581 13.8669 18.581 13.8375 18.5841 13.8113C18.5841 13.7908 18.5841 13.7704 18.5872 13.7495C18.5872 13.7171 18.593 13.6851 18.596 13.6527C18.608 13.5207 18.6284 13.3887 18.6547 13.2598C18.6605 13.2274 18.6663 13.198 18.6751 13.166C18.6809 13.1425 18.6871 13.1162 18.6929 13.0896C18.696 13.0718 18.7017 13.0572 18.7044 13.0398C18.7102 13.0105 18.7191 12.9842 18.728 12.9549C18.7368 12.9256 18.7453 12.8962 18.7542 12.8669C18.7662 12.8287 18.7777 12.7936 18.7893 12.7554C18.7982 12.7291 18.807 12.7056 18.8159 12.679C18.8745 12.5234 18.942 12.371 19.0211 12.2243C19.0331 12.2008 19.0446 12.1803 19.0593 12.1568C19.0624 12.151 19.0651 12.1452 19.0682 12.139C19.0801 12.1155 19.0948 12.095 19.1064 12.0715C19.1592 11.9835 19.2148 11.8986 19.2738 11.8133C19.2884 11.7929 19.3031 11.7693 19.3208 11.7489C19.3822 11.664 19.447 11.5845 19.5172 11.5053C19.5287 11.4907 19.5438 11.476 19.5554 11.4614C19.5611 11.4556 19.57 11.4467 19.5758 11.4378L8.27431 4.44823L6.03438 3.0612L6.02512 3.06506Z" fill="#D7DBFF"/>
<path d="M19.5688 11.4422C19.5688 11.4422 19.5542 11.4569 19.5484 11.4658C19.5542 11.46 19.563 11.4511 19.5688 11.4422ZM19.5221 16.5079C19.5399 16.5284 19.5603 16.5488 19.5781 16.5697C19.5576 16.5492 19.5399 16.5288 19.5221 16.5079Z" fill="#D7DBFF"/>
<path d="M36.4286 14.9885C36.5224 16.1617 37.6745 16.719 38.9968 16.719C39.9642 16.719 40.7469 16.5901 41.5091 16.3466L41.8813 18.2647C40.9521 18.6371 39.8146 18.822 38.586 18.822C35.4963 18.822 33.7285 17.0355 33.7285 14.1846C33.7285 11.8764 35.1619 9.32422 38.3253 9.32422C41.2657 9.32422 42.3827 11.6151 42.3827 13.8678C42.3827 14.3517 42.3268 14.7801 42.289 14.9854H36.4259L36.4286 14.9885ZM39.7617 13.0527C39.7617 12.3634 39.4628 11.2076 38.1609 11.2076C36.971 11.2076 36.4869 12.287 36.4109 13.0527H39.7617Z" fill="#D7DBFF"/>
<path d="M44.0598 16.1616C44.5817 16.4784 45.6606 16.8509 46.4987 16.8509C47.3369 16.8509 47.7095 16.5518 47.7095 16.0883C47.7095 15.6248 47.4311 15.399 46.3699 15.047C44.4906 14.4133 43.7635 13.3898 43.7844 12.3104C43.7844 10.615 45.2355 9.33024 47.487 9.33024C48.5481 9.33024 49.4978 9.57376 50.0548 9.8524L49.5506 11.8087C49.1402 11.5856 48.3603 11.2865 47.5776 11.2865C46.8887 11.2865 46.4987 11.5652 46.4987 12.0314C46.4987 12.4597 46.8536 12.6824 47.9703 13.0726C49.6999 13.6681 50.427 14.5449 50.4444 15.8856C50.4444 17.581 49.1047 18.8276 46.4984 18.8276C45.3084 18.8276 44.2469 18.5663 43.5579 18.1939L44.0594 16.1639L44.0598 16.1616Z" fill="#D7DBFF"/>
<path d="M52.1569 12.5859C52.1569 11.395 52.1188 10.3715 52.0837 9.53246H54.5404L54.6692 10.7995H54.7074C55.3786 9.83156 56.4196 9.32715 57.7415 9.32715C59.7319 9.32715 61.5205 11.0577 61.5205 13.9645C61.5205 17.2789 59.4187 18.8423 57.3898 18.8423C56.2904 18.8423 55.4341 18.3965 55.0268 17.7979H54.9886V22.3237H52.1596V12.5859H52.1569ZM54.9859 14.7275C54.9859 14.9505 55.0032 15.1559 55.0414 15.323C55.2262 16.0856 55.88 16.6633 56.6978 16.6633C57.9259 16.6633 58.653 15.6398 58.653 14.0938C58.653 12.6419 58.0023 11.542 56.7359 11.542C55.9356 11.542 55.2289 12.1375 55.0414 12.9765C55.0032 13.1262 54.9859 13.3107 54.9859 13.4782V14.7275Z" fill="#D7DBFF"/>
<path d="M68.4595 18.6374L68.2921 17.725H68.2366C67.6414 18.4525 66.7091 18.8427 65.6302 18.8427C63.7891 18.8427 62.6898 17.5024 62.6898 16.0505C62.6898 13.6863 64.8121 12.5482 68.0314 12.569V12.4401C68.0314 11.9562 67.7702 11.2669 66.375 11.2669C65.4458 11.2669 64.458 11.5837 63.8628 11.9562L63.3409 10.1319C63.9743 9.7768 65.2202 9.33105 66.8765 9.33105C69.9106 9.33105 70.878 11.1175 70.878 13.2614V16.4264C70.878 17.3005 70.9162 18.1391 71.0069 18.6408H68.4564L68.4595 18.6374ZM68.1251 14.3373C66.6358 14.3196 65.4836 14.6716 65.4836 15.7718C65.4836 16.4993 65.9673 16.8513 66.6007 16.8513C67.3074 16.8513 67.8848 16.3851 68.0723 15.81C68.1104 15.6603 68.1278 15.4932 68.1278 15.3261V14.3404L68.1251 14.3373Z" fill="#D7DBFF"/>
<path d="M79.9457 18.4143C79.4415 18.6373 78.4945 18.8249 77.4157 18.8249C74.4752 18.8249 72.5964 17.0384 72.5964 14.1698C72.5964 11.5065 74.4197 9.32715 77.8087 9.32715C78.5532 9.32715 79.3713 9.45605 79.9665 9.6822L79.521 11.7851C79.1869 11.6354 78.6828 11.5065 77.9379 11.5065C76.4486 11.5065 75.4812 12.5682 75.4986 14.0583C75.4986 15.7332 76.6157 16.61 77.9935 16.61C78.6646 16.61 79.1838 16.4985 79.612 16.3314L79.946 18.417L79.9457 18.4143Z" fill="#D7DBFF"/>
<path d="M83.4814 14.9885C83.5751 16.1617 84.7273 16.719 86.0495 16.719C87.017 16.719 87.7996 16.5901 88.5618 16.3466L88.934 18.2647C88.0048 18.6371 86.8673 18.822 85.6387 18.822C82.549 18.822 80.7812 17.0355 80.7812 14.1846C80.7812 11.8764 82.215 9.32422 85.378 9.32422C88.3184 9.32422 89.4355 11.6151 89.4355 13.8678C89.4355 14.3517 89.3795 14.7801 89.3417 14.9854H83.4787L83.4814 14.9885ZM86.8118 13.0527C86.8118 12.3634 86.5128 11.2076 85.211 11.2076C84.021 11.2076 83.5369 12.287 83.4609 13.0527H86.8118Z" fill="#D7DBFF"/>
<path d="M91.1127 16.1616C91.6346 16.4784 92.7135 16.8509 93.5517 16.8509C94.3899 16.8509 94.7625 16.5518 94.7625 16.0883C94.7625 15.6248 94.484 15.399 93.4228 15.047C91.5436 14.4133 90.8165 13.3898 90.8373 12.3104C90.8373 10.615 92.2884 9.33024 94.5399 9.33024C95.6011 9.33024 96.5507 9.57376 97.1081 9.8524L96.604 11.8087C96.1935 11.5856 95.4136 11.2865 94.631 11.2865C93.942 11.2865 93.5521 11.5652 93.5521 12.0314C93.5521 12.4597 93.9069 12.6824 95.0236 13.0726C96.7532 13.6681 97.4803 14.5449 97.4981 15.8856C97.4981 17.581 96.1581 18.8276 93.5521 18.8276C92.3621 18.8276 91.3006 18.5663 90.6116 18.1939L91.1131 16.1639L91.1127 16.1616Z" fill="#D7DBFF"/>
</svg>
