<svg width="222" height="160" viewBox="0 0 222 160" fill="none" xmlns="http://www.w3.org/2000/svg">
<path d="M1.0791 77.1978V94.4548L3.09775 104.266L7.74426 113.083L14.0635 122.476L21.6735 129.881L30.9149 136.987L42.8512 144.026L58.8559 150.725L73.828 154.847L99.1257 158.969H123.009L142.493 156.393L157.981 152.27L166.242 149.694L182.247 142.48L195.67 134.235L204.328 126.542L212.408 116.375L217.354 106.925L219.935 100.226L220.968 92.4091L220.565 78.4035L217.054 88.9412L211.158 98.6802L206.032 105.951L199.284 112.078L185.344 121.868L169.856 129.082L154.368 134.235L144.29 136.652L126.633 139.234L113.581 139.903L99.4974 139.234L78.681 136.652L64.3698 133.04L53.6931 129.598L36.1396 121.353L22.7164 112.078L17.0373 106.925L9.2931 97.6496L4.64659 88.8897L1.0791 77.1978Z" fill="#7D8CC5"/>
<path d="M196.573 27.4826L195.453 27.9258L148.921 46.4093L143.18 48.692L84.4013 72.0347L78.6603 74.3122L66.2902 79.2281L57.7664 82.6084L48.8555 80.4442L57.3741 77.0587L73.7608 70.5506L79.5018 68.273L138.28 44.9304L144.021 42.6528L190.311 24.2672L191.483 23.8035C193.248 24.9886 194.947 26.2202 196.573 27.4826Z" fill="#5E63AA"/>
<path d="M106.483 94.4549L104.17 93.8933L57.7665 82.6084L48.8556 80.4442L2.1065 69.0768L1.0791 68.8295C1.16171 67.0415 1.35273 65.2637 1.64701 63.5117L2.65375 63.7539L57.3742 77.0587L66.2903 79.2281L93.7667 85.9062L100.84 87.6273L106.483 94.4549Z" fill="#5E63AA"/>
<path d="M213.471 97.5416V101.04C213.471 101.762 213.27 102.468 212.883 103.076C212.645 103.442 212.403 103.802 212.155 104.168C211.644 104.921 210.467 104.565 210.467 103.653V101.922C210.467 101.107 210.162 100.34 209.615 99.7522C209.496 99.6182 209.362 99.4894 209.212 99.376L198.587 91.219L204.328 88.9414L212.217 94.9961C212.366 95.1094 212.501 95.2383 212.625 95.3723C213.167 95.9597 213.471 96.7274 213.471 97.5416Z" fill="#5E63AA"/>
<path d="M204.328 88.9413L198.587 91.2189L193.687 87.4624L189.309 84.1027L184.41 80.3411L143.18 48.692L138.28 44.9303L96.9469 13.2039L92.0474 9.44229L85.8262 4.67069L84.6904 3.79985C87.1376 3.41853 89.6157 3.08875 92.1249 2.8208H92.13L93.3226 3.73802L97.7884 7.1647L102.688 10.9263L144.021 42.6528L148.921 46.4092L190.151 78.0584L195.05 81.82L199.428 85.1797L204.328 88.9413Z" fill="#5E63AA"/>
<path d="M124.372 2.31065L102.688 10.9263L96.9471 13.2039L38.1687 36.5466L32.4329 38.8293H32.4277L6.61377 49.0784C7.9974 46.4556 9.62884 43.9049 11.4823 41.4367L27.5282 35.0677H27.5334L33.2693 32.7849L92.0476 9.44227L97.7887 7.16468L111.279 1.80566C115.709 1.81082 120.082 1.98602 124.372 2.31065Z" fill="#5E63AA"/>
<path d="M124.795 109.723L66.3987 132.916L66.2026 132.994C65.5004 133.272 64.9996 133.89 64.8654 134.622C64.8344 134.751 64.8241 134.885 64.8241 135.024V136.863C64.8241 138.296 63.4301 139.316 62.0568 138.889C60.7971 138.497 59.5477 138.085 58.3138 137.662C57.4619 137.368 56.894 136.559 56.894 135.658V133.066C56.894 132.741 56.9457 132.422 57.0438 132.123C57.2709 131.417 57.7511 130.809 58.4016 130.422H58.4067C58.5461 130.34 58.6907 130.268 58.8404 130.206L119.896 105.961L124.795 109.723Z" fill="#5E63AA"/>
<path d="M220.967 70.8546C220.967 71.0813 220.967 71.3081 220.957 71.5296L219.935 71.9367H219.914V71.947L195.05 81.82L189.309 84.1027L130.536 107.44L124.795 109.723L119.896 105.961L125.637 103.684L184.41 80.3411L190.151 78.0584L219.687 66.3304L220.689 65.9336C220.875 67.5619 220.967 69.2005 220.967 70.8546Z" fill="#5E63AA"/>
<path d="M134.073 116.844L83.9421 136.755L83.8749 136.781C83.0696 137.1 82.4655 137.76 82.2125 138.559C82.1248 138.832 82.0783 139.12 82.0783 139.419V140.527C82.0783 142.171 80.5759 143.418 78.9548 143.109C77.4989 142.83 76.0636 142.537 74.6335 142.222C73.4255 141.954 72.5581 140.888 72.5581 139.651V137.492C72.5581 137.204 72.5994 136.92 72.6872 136.652C72.9247 135.879 73.4926 135.225 74.2618 134.895C74.2928 134.88 74.3238 134.864 74.3548 134.854L129.173 113.083L134.073 116.844Z" fill="#5E63AA"/>
<path d="M220.565 76.7908C220.405 77.9862 220.193 79.1663 219.935 80.3411C219.744 81.2326 219.517 82.1189 219.269 83.0052L218.056 83.4844L204.328 88.9413L198.587 91.2189L139.814 114.562L134.073 116.844L129.173 113.083L134.914 110.8L193.688 87.4624L199.429 85.1797L219.46 77.2288L219.935 77.0433L220.565 76.7908Z" fill="#5E63AA"/>
<path d="M162.406 133.313V136.43C162.406 137.42 161.771 138.306 160.831 138.605C160.273 138.785 159.716 138.961 159.158 139.131C157.687 139.584 156.19 138.481 156.19 136.946V135.23C156.19 135.122 156.184 135.008 156.169 134.9C156.086 134.179 155.725 133.509 155.162 133.04H155.157C155.131 133.009 155.1 132.988 155.074 132.968L134.072 116.844L139.813 114.562L161.29 131.051C161.332 131.082 161.368 131.113 161.404 131.149C161.956 131.618 162.308 132.282 162.385 132.999C162.4 133.102 162.406 133.21 162.406 133.313Z" fill="#5E63AA"/>
<path d="M139.813 114.561L134.072 116.844L129.173 113.083L124.795 109.723L119.895 105.961L104.17 93.8932L93.7665 85.9062L78.6602 74.3121L73.7607 70.5505L32.4326 38.8292H32.4274L27.5331 35.0676H27.5279L22.5097 31.2184L21.6733 30.5743C23.026 29.3942 24.4303 28.2452 25.8965 27.1218L26.7484 27.7762L33.269 32.7849L38.1685 36.5465L79.5018 68.2729L84.4012 72.0345L125.636 103.684L130.536 107.44L134.914 110.8L139.813 114.561Z" fill="#5E63AA"/>
<path d="M57.7666 82.6083L12.9019 100.427L11.9055 100.824V102.957C11.9055 104.24 10.2379 104.755 9.52546 103.689C9.33444 103.411 9.15374 103.132 8.97304 102.854C8.84397 102.643 8.77686 102.401 8.77686 102.153V98.0206C8.77686 97.2219 9.16923 96.4851 9.79909 96.0368C9.95913 95.9131 10.1347 95.8152 10.3257 95.7379L48.8556 80.4441L57.7666 82.6083Z" fill="#5E63AA"/>
<path d="M57.2399 130.01C37.9104 123.136 22.5872 112.918 12.9018 100.427L11.9054 100.824V102.493C21.8541 114.922 37.2599 125.094 56.548 131.947C56.7133 132.004 56.8785 132.066 57.0437 132.123C57.2708 131.417 57.751 130.809 58.4015 130.422C58.0091 130.283 57.6271 130.149 57.2399 130.01ZM155.163 133.04H155.157C141.228 136.915 126.38 138.873 111 138.873C101.836 138.873 92.7444 138.162 83.9418 136.755L83.8747 136.781C83.0693 137.1 82.4653 137.76 82.2123 138.559C91.5569 140.135 101.242 140.934 111 140.934C126.731 140.934 141.925 138.904 156.169 134.9C156.087 134.179 155.725 133.509 155.163 133.04ZM221.716 65.8203C220.105 51.4128 211.633 37.8761 197.208 26.6685C195.536 25.37 193.801 24.1178 192.061 22.9481C174.255 10.9418 150.242 3.24854 124.449 1.28528C120.066 0.95034 115.631 0.780299 111.279 0.775146H111C104.629 0.775146 98.2634 1.11524 92.0732 1.79027H92.0164C89.5641 2.05822 87.0498 2.38801 84.5355 2.77963C61.4734 6.32999 40.4298 14.688 25.2667 26.3026C23.7953 27.4311 22.36 28.606 20.9919 29.7963C17.0269 33.2591 13.5472 36.9691 10.656 40.8184C8.75609 43.3484 7.08851 45.9661 5.69972 48.5993C3.18544 53.3502 1.47656 58.3125 0.62986 63.3417C0.325256 65.1401 0.12907 66.9694 0.0464651 68.7832C0.0154884 69.4737 0 70.1693 0 70.8547C0 75.451 0.691814 79.9856 2.06512 84.4222C3.38679 88.6837 5.33316 92.8524 7.90423 96.9077C8.00749 97.0726 8.11591 97.2375 8.21916 97.4024C8.39986 97.6858 8.58572 97.9641 8.77674 98.2424V98.0208C8.77674 97.2221 9.16912 96.4852 9.79898 96.0369C9.74735 95.9596 9.69572 95.8823 9.64926 95.805C4.61553 87.8592 2.06512 79.4652 2.06512 70.8547C2.06512 70.2672 2.07544 69.6695 2.10642 69.0769C2.10642 69.0099 2.10642 68.9429 2.11158 68.8759C2.18902 67.1703 2.36972 65.4441 2.65367 63.754C2.65367 63.7282 2.65884 63.7076 2.664 63.6818C3.47972 58.869 5.11116 54.118 7.52735 49.5577C7.71837 49.197 7.91456 48.8363 8.11591 48.4807C9.324 46.3062 10.7334 44.1523 12.3081 42.0551C12.6488 41.5965 13.0051 41.143 13.3613 40.6895C15.9479 37.4432 18.9629 34.3051 22.3549 31.3525C22.4065 31.3061 22.4581 31.2649 22.5098 31.2185C23.7953 30.1003 25.148 28.9976 26.5264 27.9413C26.5987 27.8846 26.671 27.8279 26.7484 27.7764C41.6173 16.4451 62.2426 8.30354 84.8505 4.82018C85.1757 4.76865 85.501 4.71712 85.8262 4.67074C87.9636 4.35126 90.0959 4.07301 92.1816 3.85143H92.2436C92.605 3.80506 92.9612 3.76898 93.3226 3.73807C98.346 3.21762 103.488 2.91875 108.646 2.85177C109.431 2.84146 110.215 2.83631 111 2.83631H111.279C114.872 2.84146 118.522 2.95998 122.157 3.19186C122.869 3.23308 123.582 3.28461 124.294 3.33614C149.447 5.25302 172.855 12.6784 190.311 24.2672C190.507 24.3961 190.708 24.5249 190.904 24.6589C192.438 25.6894 193.966 26.7819 195.453 27.9258C195.613 28.0443 195.778 28.1731 195.938 28.2968C209.914 39.154 218.118 52.2063 219.661 66.0521C219.672 66.1449 219.682 66.2377 219.687 66.3304C219.852 67.8196 219.935 69.3397 219.935 70.8547C219.935 71.0659 219.935 71.2772 219.925 71.5194C219.925 71.6585 219.919 71.7976 219.914 71.9419C219.883 73.4929 219.754 75.0749 219.542 76.6465L219.532 76.7187C219.512 76.8887 219.486 77.0587 219.46 77.2288C219.186 79.0632 218.789 80.9131 218.278 82.727C218.205 82.9794 218.133 83.2319 218.056 83.4844C216.832 87.5346 215.01 91.5333 212.624 95.3722C213.166 95.9596 213.471 96.7274 213.471 97.5415V97.8713C213.771 97.4179 214.065 96.9593 214.349 96.5058C216.786 92.5896 218.665 88.5137 219.935 84.3759C220.048 84.01 220.157 83.6493 220.26 83.2835C220.854 81.1862 221.303 79.0478 221.587 76.9299L221.597 76.8629C221.835 75.0852 221.969 73.292 221.99 71.5761C222 71.339 222 71.0968 222 70.8547C222 69.1697 221.902 67.4744 221.716 65.8203ZM162.241 130.876L162.081 130.927C161.853 131.005 161.631 131.077 161.404 131.149C161.957 131.618 162.308 132.282 162.385 132.999C162.447 132.978 162.514 132.957 162.576 132.937L162.736 132.885C183.274 126.058 200.161 115.128 210.466 102.025V101.922C210.466 101.107 210.162 100.34 209.614 99.7522C199.666 112.944 182.851 123.997 162.241 130.876ZM72.7953 134.56L72.6714 134.534C70.6166 134.05 68.5102 133.509 66.3987 132.916L66.2025 132.994C65.5003 133.272 64.9995 133.89 64.8653 134.622C67.3744 135.343 69.8784 135.998 72.3204 136.57L72.4236 136.59C72.5114 136.611 72.5992 136.631 72.6869 136.652C72.9244 135.879 73.4923 135.225 74.2616 134.895C73.7659 134.787 73.2806 134.673 72.7953 134.56Z" fill="#5E63AA"/>
<path d="M111 160C81.4327 160 53.6259 152.76 32.6908 139.62C11.6111 126.382 0 108.729 0 89.9205V70.8547H2.06512V89.9205C2.06512 127.428 50.9309 157.939 111 157.939C171.069 157.939 219.935 127.428 219.935 89.9205V70.8547H222V89.9205C222 108.729 210.389 126.382 189.309 139.62C168.379 152.765 140.567 160 111 160Z" fill="#5E63AA"/>
</svg>
