<svg width="300" height="440" viewBox="0 0 261 316" fill="none" xmlns="http://www.w3.org/2000/svg">
<path d="M79.0107 270.121L30.0184 39.2804L29.5449 31.2002L32.4235 23.9596L37.6567 18.1331L43.155 15.1219L53.2994 14.2697L139.328 7.70459L145.508 8.4558L152.654 12.3191L156.353 16.5297L159.219 23.7071L155.52 27.1159L153.626 33.4286L152.982 38.788L153.784 47.4111L156.644 57.9721L160.715 68.0345L166.176 78.8543L174.906 93.4555L176.97 96.6181L185.827 132.992L214.77 251.903L215.313 257.262L213.805 264.004L210.333 269.464L206.652 273.309L199.197 275.588L96.1559 285.473L90.7838 284.091L85.4938 280.928L81.4159 276.181L79.0107 270.121Z" fill="#7D8CC5"/>
<path d="M220.218 253.771L184.52 107.577L178.555 98.9979L169.382 84.2137L161.378 70.3764L154.257 52.3664L153.254 36.4964L155.52 27.1159L161.807 22.5645H168.069L174.294 27.4252L177.494 32.2733L182.235 38.1756L192.632 48.4273L201.892 56.2234L206.879 61.7028L212.655 70.6478L233.519 107.577L241.466 123.737L246.971 137.303L253.694 159.277L257.065 176.119L258.719 190.077L259.356 205.82L257.519 232.346L253.574 252.067L249.004 264.181L241.952 276.503L236.063 284.091L223.071 296.211L213.318 302.612L198.553 309.253L181.755 314L166.453 313.912L150.596 311.671L143.879 309.758L134.164 305.844L122.959 299.393L112.966 291.533L199.077 282.778L206.652 280.253L211.702 276.465L215.332 272.248L218.646 265.734L220.218 259.452V253.771Z" fill="#5E63AA"/>
<path d="M68.0894 247.111L55.4137 238.583L46.0015 231.273L36.4316 221.955L31.8297 213.496L31.3183 205.972L32.8649 199.104L27.6886 192.823L25.0057 186.276L25.2519 179.244L28.9069 166.783L24.4249 161.335L20.3028 154.543L19.1981 147.34L22.3481 134.184L25.1635 129.065L5.5754 102.274L3.18922 97.0725L2.00244 90.0466L3.04402 83.9738L5.97939 80.9122L11.6166 80.2178L18.1249 82.4651L24.5322 86.2337L36.4 97.5775L43.2745 129.065L45.1935 133.307L46.0646 141.128L46.3108 145.162L56.0702 189.912L58.5069 195.064L58.9361 203.87L68.0894 247.111Z" fill="#5E63AA"/>
<path d="M184.52 107.577L219.467 250.93C223.204 266.264 212.536 281.364 196.836 282.967L101.446 292.707C88.2209 294.058 76.107 285.221 73.3547 272.217L58.5073 202.052" stroke="#0C0F1D" stroke-width="3" stroke-miterlimit="10"/>
<path d="M42.9781 128.661L24.3432 40.5744C21.0985 25.2347 32.0636 10.5326 47.6874 9.26373L136.241 2.08626C148.986 1.05099 160.589 9.43418 163.613 21.8511" stroke="#0C0F1D" stroke-width="3" stroke-miterlimit="10"/>
<path d="M56.0701 190.537L46.0015 142.953" stroke="#0C0F1D" stroke-width="3" stroke-miterlimit="10"/>
<path d="M176.97 96.618L214.776 251.903C217.567 263.354 209.569 274.622 197.84 275.771L99.8549 285.385C90.0324 286.351 81.0559 279.779 79.0106 270.121L29.7657 38.0746C27.3353 26.6109 35.5544 15.6269 47.2454 14.7305L138.627 7.7487C148.09 7.02275 156.688 13.2659 158.929 22.4824L159.225 23.707" stroke="#0C0F1D" stroke-width="3" stroke-miterlimit="10"/>
<path d="M184.52 107.577C152.288 62.4983 150.003 39.8612 155.015 28.53C158.576 20.4877 169.799 19.8627 174.294 27.419C180.695 38.1757 190.814 47.2217 197.834 52.7011C203.338 57 207.947 62.3152 211.387 68.3943L232.856 106.333C261.528 158.766 263.031 206.736 255.506 244.296C242.666 308.344 165.671 336.006 115.738 293.894C115.214 293.452 114.696 293.011 114.185 292.556" stroke="#0C0F1D" stroke-width="3" stroke-miterlimit="10"/>
<path d="M68.0895 247.111C68.0895 247.111 42.2077 231.33 34.0013 218.704C28.907 210.87 32.0823 199.88 35.2196 192.665C38.357 185.45 46.8223 183.019 52.9834 187.343C56.4617 189.786 59.094 194.401 58.6206 202.923" stroke="#0C0F1D" stroke-width="3" stroke-miterlimit="10"/>
<path d="M32.8652 199.104C30.8009 196.983 29.0145 194.862 27.6888 192.823C22.5945 184.989 25.7698 173.998 28.9071 166.783C31.9119 159.877 40.5098 157.137 46.6709 161.461C50.1492 163.904 52.7815 168.519 52.3081 177.041" stroke="#0C0F1D" stroke-width="3" stroke-miterlimit="10"/>
<path d="M29.3303 166.512C26.3571 163.69 23.7752 160.824 22.0076 158.103C16.9133 150.269 20.0886 139.279 23.226 132.063C26.2308 125.157 34.8286 122.418 40.9898 126.742C44.468 129.185 46.4691 134.431 45.9957 142.953" stroke="#0C0F1D" stroke-width="3" stroke-miterlimit="10"/>
<path d="M25.1638 129.065L7.1034 104.54C3.94708 100.349 2.07853 95.2862 2.00278 90.0404C1.89546 83.046 4.84978 76.1021 19.6592 83.1596C22.1401 84.3401 24.4063 85.9308 26.3759 87.8436L36.4003 97.5777" stroke="#0C0F1D" stroke-width="3" stroke-miterlimit="10"/>
</svg>
