<svg width="87" height="105" viewBox="0 0 87 105" fill="none" xmlns="http://www.w3.org/2000/svg">
<path d="M86.2915 72.9749C86.2915 79.9069 80.6724 85.5211 73.7453 85.5211H14.6693C7.73726 85.5211 2.12305 79.902 2.12305 72.9749C2.12305 66.043 7.74224 60.4287 14.6693 60.4287H16.0218V35.6496C16.0218 24.9881 24.6645 16.3454 35.326 16.3454V9.08028C35.326 4.17716 39.3042 0.198975 44.2073 0.198975C49.1104 0.198975 53.0886 4.17716 53.0886 9.08028V16.3454C63.7501 16.3454 72.3928 24.9881 72.3928 35.6496V60.4287H73.7453C80.6773 60.4287 86.2915 66.0479 86.2915 72.9749Z" fill="#0C0F1D"/>
<path d="M60.0402 88.2263C60.0402 96.9684 52.9491 104.055 44.212 104.055C35.4749 104.055 28.3838 96.9634 28.3838 88.2263H60.0452H60.0402Z" fill="#0C0F1D"/>
<path d="M8.4933 28.1853C7.63799 28.1853 6.94678 27.4941 6.94678 26.6388C6.94678 15.7833 15.7784 6.94678 26.6388 6.94678C27.4941 6.94678 28.1853 7.63799 28.1853 8.4933C28.1853 9.34861 27.4941 10.0398 26.6388 10.0398C17.484 10.0398 10.0348 17.489 10.0348 26.6438C10.0348 27.4991 9.34363 28.1903 8.48832 28.1903L8.4933 28.1853Z" fill="#0C0F1D"/>
<path d="M1.54652 28.1855C0.69121 28.1855 0 27.4942 0 26.6389C0 11.9495 11.9495 0 26.6389 0C27.4942 0 28.1855 0.69121 28.1855 1.54652C28.1855 2.40183 27.4942 3.09304 26.6389 3.09304C13.6551 3.08807 3.08807 13.6551 3.08807 26.6389C3.08807 27.4942 2.39686 28.1855 1.54155 28.1855H1.54652Z" fill="#0C0F1D"/>
</svg>
